<?xml version="1.0"?>
<svg width="740" height="740" xmlns="http://www.w3.org/2000/svg" xmlns:svg="http://www.w3.org/2000/svg" version="1.1">
 <g class="layer">
  <title>Layer 1</title>
  <path d="m70,0c613.8,0 1227.6,0 1860,0c0,244.2 0,488.4 0,740c-613.8,0 -1227.6,0 -1860,0c0,-244.2 0,-488.4 0,-740z" fill="#FEFEFE" id="svg_1" transform="matrix(1 0 0 1 0 0)"/>
  <path d="m0,0c3.05,1.36 5.15,2.9 7.51,5.26c0.68,0.67 1.36,1.35 2.06,2.04c1.11,1.12 1.11,1.12 2.24,2.26c0.79,0.79 1.58,1.58 2.4,2.39c2.66,2.66 5.31,5.32 7.96,7.98c1.9,1.9 3.8,3.8 5.71,5.7c4.63,4.63 9.26,9.26 13.89,13.9c5.38,5.39 10.77,10.78 16.16,16.17c9.62,9.62 19.22,19.23 28.83,28.85c9.33,9.35 18.66,18.69 28,28.03c0.58,0.57 1.15,1.15 1.74,1.74c0.58,0.57 1.15,1.15 1.75,1.74c10.62,10.62 21.23,21.24 31.85,31.87c3.76,3.76 7.52,7.52 11.28,11.28c4.58,4.58 9.15,9.16 13.73,13.75c2.33,2.34 4.67,4.68 7.01,7.01c2.53,2.53 5.05,5.06 7.58,7.6c1.12,1.12 1.12,1.12 2.27,2.26c0.67,0.67 1.34,1.34 2.03,2.04c0.58,0.58 1.17,1.17 1.77,1.77c1.23,1.36 1.23,1.36 1.23,2.36c-14.03,2.55 -31.1,5.08 -43.89,-2.64c-11.5,-7.98 -21.05,-18.68 -30.57,-28.86c-4.19,-4.44 -8.5,-8.77 -12.8,-13.12c-8.09,-8.21 -16.08,-16.51 -24.03,-24.86c-9.07,-9.51 -18.25,-18.9 -27.45,-28.29c-18.88,-19.29 -37.62,-38.71 -56.26,-58.23c-3.9,1.74 -7.24,4.21 -10.66,6.73c-0.67,0.48 -1.34,0.97 -2.03,1.48c-25.37,18.64 -49.5,38.65 -73,59.6c-0.96,0.86 -1.93,1.72 -2.93,2.6c-53.35,47.54 -85.12,89.62 -89.41,161.74c-0.09,1.33 -0.17,2.66 -0.25,4c-3.61,60.36 5.32,122.35 10.28,181.85c106.59,0 213.18,0 323,0c0,9.24 0,18.48 0,28c-115.83,0 -231.66,0 -351,0c-15.51,-171.3 -15.51,-171.3 -13.16,-209.48c0.14,-2.34 0.28,-4.69 0.42,-7.03c4.77,-83.01 45.91,-133.83 106.24,-187.63c0.58,-0.51 1.16,-1.02 1.75,-1.55c1.76,-1.56 3.51,-3.13 5.26,-4.7c29.99,-26.75 61.04,-51.9 93.49,-75.61z" fill="#010000" id="svg_2" transform="matrix(1 0 0 1 0 0) matrix(1 0 0 1 0 0) matrix(1 0 0 1 369 164)"/>
  <path d="m369,90c3.66,1.22 5.4,3.29 8,6c1.5,1.5 3,3 4.5,4.5c0.78,0.78 1.55,1.56 2.36,2.36c1.64,1.64 3.29,3.27 4.95,4.89c2.19,2.25 2.19,2.25 4.07,4.69c2.26,2.73 4.69,4.84 7.41,7.1c2.38,2.03 4.53,4.23 6.71,6.46c1.5,1.5 3,3 4.5,4.5c1.17,1.18 1.17,1.18 2.37,2.38c1.56,1.55 3.12,3.09 4.69,4.62c2.83,2.9 5.46,5.94 8.08,9.02c3.23,3.39 6.84,6.4 10.36,9.48c0.33,-14.52 0.66,-29.04 1,-44c20.46,0 40.92,0 62,0c0,35.97 0,71.94 0,109c1.32,0.66 2.64,1.32 4,2c1.26,1.48 2.51,2.97 3.71,4.49c1.38,1.71 1.38,1.71 3.79,3.51c2.42,1.94 4.19,4.02 6.12,6.43c1.51,1.71 3.12,3.12 4.88,4.57c2.3,1.9 4.26,3.79 6.13,6.13c2.28,2.76 4.55,4.69 7.37,6.87c2.8,2.66 5.36,5.41 7.81,8.38c2.84,3.37 6.03,6.15 9.39,9c2.22,2 3.93,4.29 5.8,6.62c2.01,1.81 4.06,3.55 6.12,5.31c2.25,2.03 4,4.32 5.88,6.69c1.72,1.56 3.49,3.04 5.27,4.53c3.17,2.69 6.02,5.54 8.54,8.85c1.89,2.26 3.7,3.97 5.94,5.87c3.04,2.59 5.7,5.29 8.31,8.31c2.91,3.37 5.92,6.28 9.35,9.11c3.16,2.64 5.95,5.5 8.47,8.77c2.25,2.72 4.69,4.83 7.4,7.1c2.38,2.02 4.54,4.22 6.72,6.46c0.6,0.58 1.21,1.16 1.83,1.76c0.63,0.62 1.27,1.23 1.92,1.87c0.59,0.56 1.19,1.13 1.8,1.72c1.45,1.65 1.45,1.65 2.45,4.65c-14.64,2.46 -31.85,4.89 -44.77,-3.89c-9.52,-7.24 -17.67,-16.1 -25.79,-24.82c-3.82,-4.06 -7.76,-8.01 -11.68,-11.98c-7.38,-7.5 -14.66,-15.09 -21.9,-22.72c-8.25,-8.67 -16.61,-17.23 -24.97,-25.79c-14.29,-14.62 -28.5,-29.32 -42.62,-44.1c-0.59,-0.62 -1.18,-1.25 -1.79,-1.89c-1.09,-1.14 -2.18,-2.28 -3.27,-3.42c-3.03,-3.18 -6.1,-6.3 -9.21,-9.39c-27.33,-27.33 -54.67,-54.67 -82,-82c-3.31,1.44 -5.44,3.22 -7.95,5.81c-0.78,0.8 -1.55,1.59 -2.36,2.42c-0.85,0.88 -1.7,1.76 -2.57,2.67c-1.4,1.43 -2.79,2.87 -4.19,4.3c-1.51,1.56 -3.03,3.12 -4.54,4.68c-3.23,3.34 -6.48,6.68 -9.73,10.02c-0.56,0.57 -1.11,1.14 -1.69,1.74c-1.15,1.18 -2.3,2.36 -3.45,3.54c-1.78,1.83 -3.57,3.67 -5.35,5.5c-8.69,8.93 -17.41,17.83 -26.14,26.72c-0.64,0.64 -1.27,1.28 -1.92,1.95c-5.88,5.97 -11.76,11.95 -17.64,17.92c-4.03,4.1 -8.06,8.19 -12.1,12.29c-0.67,0.68 -1.34,1.36 -2.03,2.07c-10.81,10.99 -21.55,22.05 -32.28,33.13c-11.03,11.4 -22.13,22.72 -33.31,33.98c-6.26,6.32 -12.49,12.66 -18.63,19.1c-42.98,44.95 -42.98,44.95 -63.33,45.52c-7.15,-0.19 -13.93,-1.31 -20.79,-3.36c0.33,-0.99 0.66,-1.98 1,-3c0.66,0 1.32,0 2,0c0.99,-1.98 0.99,-1.98 2,-4c0.66,0 1.32,0 2,0c0.33,-0.99 0.66,-1.98 1,-3c1.62,-1.71 3.3,-3.37 5,-5c1.02,-1.03 2.03,-2.07 3.04,-3.11c1.05,-1.07 2.1,-2.14 3.15,-3.2c0.53,-0.55 1.06,-1.1 1.61,-1.67c1.36,-1.38 2.78,-2.7 4.2,-4.02c0.66,0 1.32,0 2,0c0.99,-1.98 0.99,-1.98 2,-4c0.66,0 1.32,0 2,0c0.25,-0.57 0.5,-1.14 0.75,-1.73c1.44,-2.62 3.13,-4.42 5.25,-6.52c0.7,-0.71 1.4,-1.41 2.12,-2.14c1.88,-1.61 1.88,-1.61 3.88,-1.61c0.32,-0.81 0.32,-0.81 0.64,-1.63c1.87,-3.26 4.42,-5.71 7.06,-8.33c0.59,-0.59 1.17,-1.17 1.77,-1.78c1.92,-1.93 3.85,-3.85 5.78,-5.78c1.34,-1.33 2.68,-2.67 4.01,-4.01c2.8,-2.81 5.61,-5.61 8.42,-8.41c3.6,-3.59 7.2,-7.19 10.79,-10.8c2.76,-2.76 5.52,-5.53 8.29,-8.28c1.33,-1.33 2.65,-2.66 3.98,-3.99c1.85,-1.85 3.7,-3.7 5.56,-5.55c0.55,-0.55 1.1,-1.11 1.67,-1.68c3.8,-3.76 3.8,-3.76 6.03,-3.76c0.25,-0.58 0.51,-1.16 0.77,-1.75c1.38,-2.52 2.93,-4.17 4.97,-6.18c0.74,-0.74 1.47,-1.47 2.23,-2.22c0.78,-0.76 1.55,-1.51 2.34,-2.29c1.14,-1.12 1.14,-1.12 2.31,-2.27c1.47,-1.46 2.94,-2.91 4.42,-4.36c2.93,-2.88 5.84,-5.77 8.69,-8.73c1.39,-1.44 2.83,-2.82 4.27,-4.2c0.66,0 1.32,0 2,0c0.21,-0.53 0.41,-1.06 0.62,-1.61c1.96,-3.4 4.6,-5.9 7.38,-8.64c0.55,-0.55 1.09,-1.11 1.66,-1.68c4.09,-4.07 4.09,-4.07 6.34,-4.07c0.21,-0.53 0.41,-1.06 0.62,-1.61c1.96,-3.4 4.6,-5.9 7.38,-8.64c0.55,-0.55 1.09,-1.11 1.66,-1.68c4.09,-4.07 4.09,-4.07 6.34,-4.07c0.25,-0.59 0.51,-1.19 0.77,-1.8c1.37,-2.44 2.75,-3.69 4.92,-5.45c3.63,-3.06 6.66,-6.36 9.73,-9.98c1.98,-2.22 4.26,-3.91 6.58,-5.77c1.1,-1.21 2.18,-2.44 3.25,-3.69c3.99,-4.66 8.14,-9.25 12.75,-13.31c0.66,0 1.32,0 2,0c0.36,-0.84 0.36,-0.84 0.72,-1.7c1.57,-2.83 3.5,-4.78 5.78,-7.07c0.89,-0.89 1.77,-1.77 2.69,-2.69c0.93,-0.92 1.85,-1.84 2.81,-2.79c0.93,-0.94 1.86,-1.87 2.81,-2.84c0.89,-0.88 1.78,-1.76 2.69,-2.68c0.81,-0.81 1.63,-1.62 2.47,-2.46c2.03,-1.77 2.03,-1.77 4.03,-1.77c0.27,-0.64 0.54,-1.28 0.81,-1.94c1.19,-2.06 1.19,-2.06 4.19,-3.06c0.33,-0.99 0.66,-1.98 1,-3c0.66,0 1.32,0 2,0c0.37,-0.86 0.37,-0.86 0.75,-1.73c1.44,-2.62 3.13,-4.42 5.25,-6.52c0.7,-0.71 1.4,-1.41 2.12,-2.14c1.88,-1.61 1.88,-1.61 3.88,-1.61c0.37,-0.93 0.37,-0.93 0.75,-1.87c1.49,-2.53 2.69,-2.85 5.25,-4.13c0.68,-1.32 1.35,-2.66 2,-4c1.63,-1.7 3.29,-3.38 5,-5z" fill="#AF7E4D" id="svg_3" transform="matrix(1 0 0 1 0 0)"/>
  <path d="m0,0c106.59,0 213.18,0 323,0c0,9.24 0,18.48 0,28c-54.12,0 -108.24,0 -164,0c0.33,-0.99 0.66,-1.98 1,-3c0.7,-0.23 1.4,-0.45 2.13,-0.69c4.4,-2.01 6.81,-5.65 9.87,-9.31c2.83,-3.03 5.13,-5.43 9,-7c0,-0.99 0,-1.98 0,-3c0.66,0 1.32,0 2,0c0,-0.66 0,-1.32 0,-2c-59.07,0.33 -118.14,0.66 -179,1c0,1.32 0,2.64 0,4c-1.32,-0.33 -2.64,-0.66 -4,-1c0,1.65 0,3.3 0,5c-0.66,0 -1.32,0 -2,0c0,-0.66 0,-1.32 0,-2c-0.99,-0.33 -1.98,-0.66 -3,-1c0,-1.32 0,-2.64 0,-4c0.99,-0.33 1.98,-0.66 3,-1c0,0.66 0,1.32 0,2c0.66,0 1.32,0 2,0c-0.19,-0.62 -0.37,-1.24 -0.56,-1.87c-0.44,-2.13 -0.44,-2.13 0.56,-4.13z" fill="#010000" id="svg_4" transform="translate(203,622)"/>
  <path d="m0,0c0.66,0 1.32,0 2,0c0.33,33.99 0.66,67.98 1,103c1.98,-0.99 1.98,-0.99 4,-2c0,-0.66 0,-1.32 0,-2c0.66,0 1.32,0 2,0c0,-0.66 0,-1.32 0,-2c0.66,0 1.32,0 2,0c0.66,-1.32 1.32,-2.64 2,-4c0.66,0 1.32,0 2,0c0.27,-0.6 0.54,-1.2 0.81,-1.81c1.19,-2.19 2.29,-3.6 4.19,-5.19c0.66,0 1.32,0 2,0c0,-0.66 0,-1.32 0,-2c0.66,0 1.32,0 2,0c0,-0.66 0,-1.32 0,-2c0.99,0 1.98,0 3,0c0,-23.1 0,-46.2 0,-70c0.33,0 0.66,0 1,0c0,83.16 0,166.32 0,252c-0.99,-0.33 -1.98,-0.66 -3,-1c-0.33,-57.09 -0.66,-114.18 -1,-173c-0.99,0.99 -1.98,1.98 -3,3c0,1.32 0,2.64 0,4c-1.98,0.5 -1.98,0.5 -4,1c0,0.99 0,1.98 0,3c-0.66,0 -1.32,0 -2,0c-0.29,0.64 -0.58,1.28 -0.87,1.94c-1.13,2.06 -1.13,2.06 -3.13,3.06c-0.99,0.99 -0.99,0.99 -2,2c-1.32,0 -2.64,0 -4,0c0.33,1.32 0.66,2.64 1,4c-1.32,-0.33 -2.64,-0.66 -4,-1c0,28.38 0,56.76 0,86c0.66,0 1.32,0 2,0c0,-0.66 0,-1.32 0,-2c0.66,0 1.32,0 2,0c0.99,-1.98 0.99,-1.98 2,-4c0.33,1.32 0.66,2.64 1,4c1.32,0 2.64,0 4,0c0,0.99 0,1.98 0,3c-0.99,0 -1.98,0 -3,0c-0.66,1.65 -1.32,3.3 -2,5c-1.32,-0.33 -2.64,-0.66 -4,-1c-1.61,3.23 -1.18,6.76 -1.21,10.31c-0.01,1.28 -0.01,1.28 -0.03,2.6c-0.03,2.84 -0.05,5.69 -0.08,8.54c-0.02,1.97 -0.04,3.94 -0.06,5.91c-0.05,5.19 -0.1,10.38 -0.15,15.57c-0.05,5.3 -0.11,10.59 -0.16,15.89c-0.11,10.39 -0.21,20.79 -0.31,31.18c-0.66,0 -1.32,0 -2,0c0,-96.36 0,-192.72 0,-292z" fill="#131112" id="svg_5" transform="translate(175,358)"/>
  <path d="m0,0c106.26,0 212.52,0 322,0c0,0.33 0,0.66 0,1c-66.33,0.5 -66.33,0.5 -134,1c0,0.66 0,1.32 0,2c1.32,0 2.64,0 4,0c-0.33,0.99 -0.66,1.98 -1,3c-0.66,0 -1.32,0 -2,0c-0.66,1.65 -1.32,3.3 -2,5c-0.99,0 -1.98,0 -3,0c0,-0.66 0,-1.32 0,-2c-0.66,0 -1.32,0 -2,0c-0.19,0.9 -0.19,0.9 -0.37,1.81c-0.63,2.19 -0.63,2.19 -2.63,5.19c-0.33,0.66 -0.66,1.32 -1,2c-1,2 -1,2 -3,5c-0.66,0 -1.32,0 -2,0c0,0.66 0,1.32 0,2c-0.66,0 -1.32,0 -2,0c0,0.66 0,1.32 0,2c-3.96,0 -7.92,0 -12,0c0.33,-0.99 0.66,-1.98 1,-3c0.7,-0.23 1.4,-0.45 2.13,-0.69c4.4,-2.01 6.81,-5.65 9.87,-9.31c2.83,-3.03 5.13,-5.43 9,-7c0,-0.99 0,-1.98 0,-3c0.66,0 1.32,0 2,0c0,-0.66 0,-1.32 0,-2c-59.07,0.33 -118.14,0.66 -179,1c0,1.32 0,2.64 0,4c-1.32,-0.33 -2.64,-0.66 -4,-1c0,1.65 0,3.3 0,5c-0.66,0 -1.32,0 -2,0c0,-0.66 0,-1.32 0,-2c-0.99,-0.33 -1.98,-0.66 -3,-1c0,-1.32 0,-2.64 0,-4c0.99,-0.33 1.98,-0.66 3,-1c0,0.66 0,1.32 0,2c0.66,0 1.32,0 2,0c-0.19,-0.62 -0.37,-1.24 -0.56,-1.87c-0.44,-2.13 -0.44,-2.13 0.56,-4.13z" fill="#272526" id="svg_6" transform="translate(203,622)"/>
  <path d="m0,0c3.97,1.99 6.04,3.79 9.14,6.91c0.49,0.5 0.99,0.99 1.5,1.51c1.64,1.64 3.28,3.28 4.91,4.93c1.13,1.14 2.27,2.28 3.41,3.42c2.99,3 5.97,6 8.96,9.01c3.04,3.07 6.09,6.13 9.15,9.19c5.98,6 11.96,12.01 17.93,18.03c-0.99,0.33 -1.98,0.66 -3,1c-0.49,-0.68 -0.99,-1.36 -1.5,-2.06c-2.01,-2.36 -3.85,-4.15 -6.19,-6.13c-3.21,-2.74 -6.02,-5.64 -8.81,-8.81c-3.22,-3.66 -6.53,-6.88 -10.26,-10.01c-3.47,-3.08 -6.7,-6.41 -9.94,-9.73c-2.95,-2.99 -5.99,-5.67 -9.3,-8.26c-1.69,-1.65 -3.36,-3.31 -5,-5c-7.3,6.4 -14.25,13.1 -21.11,19.98c-1.65,1.65 -3.31,3.31 -4.96,4.96c-6.31,6.26 -6.31,6.26 -12.2,12.9c-2.58,3.12 -5.51,5.66 -8.58,8.28c-3.96,3.46 -7.63,7.22 -11.34,10.94c-0.78,0.78 -1.56,1.56 -2.36,2.36c-4.69,4.68 -4.69,4.68 -9,9.7c-1.88,2.21 -3.49,3.82 -5.68,5.64c-6.87,5.96 -13.18,12.53 -19.59,18.97c-1.44,1.43 -2.87,2.87 -4.31,4.3c-3.75,3.76 -7.51,7.53 -11.26,11.29c-3.82,3.83 -7.64,7.65 -11.46,11.48c-6.16,6.17 -12.33,12.35 -18.49,18.53c-3.22,3.23 -6.44,6.45 -9.66,9.67c-0.72,0.72 -1.45,1.45 -2.2,2.2c-13.26,13.26 -26.53,26.53 -39.8,39.8c-0.66,-0.66 -1.32,-1.32 -2,-2c63.69,-63.69 127.38,-127.38 193,-193z" fill="#0D0C0C" id="svg_7" transform="translate(369,164)"/>
  <path d="m0,0c0.33,0 0.66,0 1,0c0,83.16 0,166.32 0,252c-0.99,-0.33 -1.98,-0.66 -3,-1c-0.33,-57.09 -0.66,-114.18 -1,-173c-0.99,0.99 -1.98,1.98 -3,3c0,1.32 0,2.64 0,4c-1.98,0.5 -1.98,0.5 -4,1c0,0.99 0,1.98 0,3c-0.66,0 -1.32,0 -2,0c-0.29,0.64 -0.58,1.28 -0.88,1.94c-1.12,2.06 -1.12,2.06 -3.12,3.06c-0.99,0.99 -0.99,0.99 -2,2c-1.32,0 -2.64,0 -4,0c0.33,1.32 0.66,2.64 1,4c-1.32,-0.33 -2.64,-0.66 -4,-1c-0.37,-6.48 -0.37,-6.48 1.37,-8.94c1.63,-1.06 1.63,-1.06 3.63,-1.06c0,-0.66 0,-1.32 0,-2c0.66,0 1.32,0 2,0c0,-0.66 0,-1.32 0,-2c0.66,0 1.32,0 2,0c0.66,-1.32 1.32,-2.64 2,-4c0.66,0 1.32,0 2,0c0.27,-0.6 0.54,-1.2 0.81,-1.81c1.19,-2.19 2.29,-3.6 4.19,-5.19c0.66,0 1.32,0 2,0c0,-0.66 0,-1.32 0,-2c0.66,0 1.32,0 2,0c0,-0.66 0,-1.32 0,-2c0.99,0 1.98,0 3,0c0,-23.1 0,-46.2 0,-70z" fill="#3A3839" id="svg_8" transform="translate(202,370)"/>
  <path d="m0,0c0,9.24 0,18.48 0,28c-0.66,0 -1.32,0 -2,0c0,-8.25 0,-16.5 0,-25c-11.22,0 -22.44,0 -34,0c0,0.66 0,1.32 0,2c-5.24,5 -5.24,5 -10,5c-0.33,1.32 -0.66,2.64 -1,4c-0.66,0 -1.32,0 -2,0c0,0.99 0,1.98 0,3c-3.88,-0.87 -3.88,-0.87 -5,-2c-0.44,-2.25 -0.44,-2.25 0,-5c1.83,-2.08 3.69,-3.38 6,-5c0.66,0 1.32,0 2,0c0,-0.66 0,-1.32 0,-2c-0.9,0 -1.79,0 -2.72,0c-58.51,0.07 -117.02,-0.1 -175.53,-0.45c-10.6,-0.06 -21.2,-0.12 -31.81,-0.18c-21.64,-0.12 -43.29,-0.24 -64.94,-0.37c0,-0.33 0,-0.66 0,-1c40.75,-0.13 81.5,-0.25 122.25,-0.38c4.8,-0.02 9.61,-0.03 14.41,-0.05c1.44,0 1.44,0 2.9,-0.01c15.52,-0.04 31.03,-0.09 46.54,-0.14c15.91,-0.05 31.81,-0.1 47.72,-0.15c9.82,-0.03 19.64,-0.06 29.46,-0.09c6.73,-0.02 13.45,-0.05 20.18,-0.07c3.89,-0.01 7.77,-0.02 11.66,-0.03c4.2,-0.02 8.41,-0.03 12.61,-0.04c1.24,-0.01 2.49,-0.01 3.77,-0.01c1.11,-0.01 2.23,-0.01 3.38,-0.01c1.46,-0.01 1.46,-0.01 2.94,-0.01c2.18,-0.01 2.18,-0.01 3.18,-0.01z" fill="#080607" id="svg_9" transform="translate(526,622)"/>
  <path d="m0,0c3.68,1.49 6.21,3.93 8.63,7.06c0,0.66 0,1.32 0,2c0.53,0.21 1.06,0.41 1.6,0.63c3.4,1.95 5.91,4.59 8.65,7.37c0.83,0.82 0.83,0.82 1.67,1.66c4.08,4.09 4.08,4.09 4.08,6.34c0.55,0.23 1.11,0.46 1.69,0.7c2.92,1.65 4.91,3.71 7.24,6.12c0.84,0.85 1.67,1.7 2.53,2.58c0.84,0.86 1.67,1.72 2.54,2.6c3.34,3.36 6.7,6.69 10.08,10.01c1.42,1.41 2.84,2.82 4.26,4.23c0.99,0.97 1.97,1.95 2.96,2.91c1.43,1.41 2.85,2.83 4.28,4.24c1.27,1.26 1.27,1.26 2.57,2.54c1.85,2.07 1.85,2.07 1.85,4.07c0.54,0.22 1.08,0.44 1.64,0.66c3.17,1.81 5.56,4.26 8.11,6.84c0.5,0.5 1.01,1 1.53,1.51c3.72,3.74 3.72,3.74 3.72,5.99c0.57,0.24 1.14,0.47 1.73,0.71c2.8,1.6 4.42,3.52 6.52,5.98c3.34,3.81 6.75,7.18 10.62,10.45c4.24,3.72 8.37,7.65 12.13,11.86c0,0.66 0,1.32 0,2c0.65,0 1.31,0 2,0c1.7,1.62 3.37,3.3 5,5c0.59,0.56 1.19,1.12 1.81,1.69c1.19,1.31 1.19,1.31 1.19,3.31c0.57,0.25 1.15,0.5 1.75,0.75c2.57,1.44 4.31,3.04 6.25,5.25c0,0.66 0,1.32 0,2c1.31,0.66 2.63,1.32 4,2c0,0.66 0,1.32 0,2c0.84,0.36 0.84,0.36 1.7,0.72c2.82,1.58 4.77,3.5 7.06,5.78c0.89,0.89 1.78,1.78 2.7,2.69c0.92,0.93 1.84,1.86 2.79,2.81c0.93,0.93 1.87,1.86 2.83,2.82c0.89,0.88 1.77,1.77 2.68,2.68c0.81,0.82 1.63,1.63 2.46,2.47c1.78,2.03 1.78,2.03 1.78,4.03c-4.26,-1.65 -7.11,-4.83 -10.26,-8.01c-0.62,-0.62 -1.24,-1.24 -1.89,-1.88c-2.09,-2.09 -4.18,-4.19 -6.26,-6.29c-1.5,-1.5 -3,-2.99 -4.5,-4.49c-4.07,-4.07 -8.13,-8.15 -12.19,-12.22c-4.25,-4.26 -8.5,-8.51 -12.75,-12.77c-8.05,-8.05 -16.1,-16.12 -24.14,-24.18c-9.16,-9.18 -18.32,-18.35 -27.48,-27.53c-18.85,-18.87 -37.7,-37.74 -56.53,-56.63c-3.53,1.66 -5.76,3.55 -8.48,6.35c-0.84,0.85 -1.67,1.71 -2.53,2.58c-1.3,1.34 -1.3,1.34 -2.62,2.7c-1.72,1.77 -3.44,3.53 -5.16,5.29c-0.76,0.78 -1.52,1.56 -2.31,2.37c-1.91,1.71 -1.91,1.71 -3.91,1.71c1,-2.99 1.66,-4.02 4,-6c0.67,0 1.33,0 2,0c0.39,-0.89 0.39,-0.89 0.78,-1.8c1.33,-2.39 2.66,-3.62 4.79,-5.32c2.65,-2.09 2.65,-2.09 4.43,-4.88c0.67,0 1.33,0 2,0c0,-0.99 0,-1.98 0,-3c2.12,-2.19 3.31,-2.98 6.38,-3.06z" fill="#0E0C0D" id="svg_10" transform="matrix(1 0 0 1 0 0) matrix(1 0 0 1 0 0) matrix(1 0 0 1 370.375 200.938)"/>
  <path d="m0,0c4.32,0.46 6.67,3.26 9.57,6.2c0.55,0.55 1.1,1.1 1.67,1.66c1.84,1.84 3.68,3.69 5.51,5.54c1.33,1.32 2.65,2.64 3.97,3.95c3.59,3.59 7.17,7.18 10.74,10.78c3.74,3.75 7.49,7.5 11.24,11.25c6.29,6.29 12.57,12.59 18.85,18.89c8.08,8.1 16.16,16.2 24.24,24.29c6.94,6.94 13.88,13.88 20.81,20.83c2.23,2.24 4.47,4.48 6.71,6.72c3.5,3.51 7,7.02 10.51,10.54c1.28,1.29 2.57,2.58 3.87,3.88c1.75,1.75 3.5,3.51 5.25,5.27c0.52,0.52 1.04,1.03 1.57,1.57c3.49,3.52 3.49,3.52 3.49,4.63c-12.54,0 -25.08,0 -38,0c0,-0.33 0,-0.66 0,-1c10.89,-0.33 21.78,-0.66 33,-1c-8.82,-9.95 -8.82,-9.95 -18.5,-19c-3.01,-2.5 -5.74,-5.22 -8.5,-8c-1.7,-1.69 -3.4,-3.39 -5.09,-5.08c-4.9,-4.87 -9.78,-9.75 -14.67,-14.63c-2.95,-2.94 -5.9,-5.88 -8.85,-8.83c-2.87,-2.85 -5.73,-5.71 -8.6,-8.57c-1.08,-1.09 -2.17,-2.17 -3.26,-3.25c-1.52,-1.52 -3.05,-3.04 -4.57,-4.56c-0.86,-0.86 -1.72,-1.73 -2.61,-2.61c-2.28,-2.39 -4.31,-4.88 -6.35,-7.47c-1.09,-1.01 -2.21,-1.99 -3.36,-2.93c-5.97,-5.11 -11.44,-10.72 -16.99,-16.29c-1.91,-1.91 -3.82,-3.82 -5.74,-5.73c-1.22,-1.23 -2.45,-2.45 -3.68,-3.68c-0.56,-0.57 -1.13,-1.13 -1.71,-1.71c-3.06,-3.08 -5.84,-6.24 -8.52,-9.66c-1.3,-1.2 -2.64,-2.37 -4,-3.5c-3.06,-2.61 -5.63,-5.24 -8,-8.5z" fill="#0E0C0D" id="svg_11" transform="translate(428,224)"/>
  <path d="m0,0c2.31,0.33 4.62,0.66 7,1c-0.33,1.98 -0.66,3.96 -1,6c-1.39,0.09 -1.39,0.09 -2.81,0.19c-3.33,0.5 -3.33,0.5 -5,3.12c-1.22,2.55 -1.22,2.55 -1.69,4.82c-0.63,2.36 -1.61,3.35 -3.5,4.87c-0.66,0 -1.32,0 -2,0c-0.33,0.99 -0.66,1.98 -1,3c-1.65,0.33 -3.3,0.66 -5,1c0.66,0.33 1.32,0.66 2,1c-0.8,0.27 -1.61,0.54 -2.44,0.81c-0.84,0.39 -1.69,0.79 -2.56,1.19c-0.33,0.99 -0.66,1.98 -1,3c-0.99,0.66 -1.98,1.32 -3,2c0,0.66 0,1.32 0,2c-2.17,-0.51 -4,-1 -6,-2c0.66,-1.65 1.32,-3.3 2,-5c0.66,0 1.32,0 2,0c-0.33,-0.99 -0.66,-1.98 -1,-3c0.91,-0.58 1.82,-1.16 2.75,-1.75c3.22,-2.09 3.22,-2.09 5.5,-4.5c0.87,-0.87 0.87,-0.87 1.75,-1.75c0.66,0 1.32,0 2,0c0.23,-0.54 0.45,-1.07 0.69,-1.62c2.88,-5.22 6.66,-8.76 11.31,-12.38c0.33,-0.66 0.66,-1.32 1,-2z" fill="#100E0F" id="svg_12" transform="translate(353,192)"/>
  <path d="m0,0c0.66,0 1.32,0 2,0c0,0.99 0,1.98 0,3c1.32,0 2.64,0 4,0c0,0.66 0,1.32 0,2c-0.62,0.12 -1.24,0.25 -1.87,0.38c-2.32,0.49 -2.32,0.49 -4.13,2.62c-0.99,-0.66 -1.98,-1.32 -3,-2c0,-0.99 0,-1.98 0,-3c0.99,0 1.98,0 3,0c0,-0.99 0,-1.98 0,-3zm-6,6c0.99,0.33 1.98,0.66 3,1c0,3 0,3 -1,6c-0.99,0 -1.98,0 -3,0c0.1,0.72 0.21,1.44 0.31,2.19c-0.44,3.99 -2.38,5.14 -5.31,7.81c-0.82,1.1 -1.63,2.2 -2.44,3.31c-2.56,2.69 -2.56,2.69 -5.87,3.07c-0.89,-0.13 -1.78,-0.25 -2.69,-0.38c-0.33,1.32 -0.66,2.64 -1,4c-0.66,-0.33 -1.32,-0.66 -2,-1c0.33,1.65 0.66,3.3 1,5c-2.87,-0.57 -3.86,-0.86 -6,-3c0.34,-3.31 1.74,-5.27 3.87,-7.75c0.52,-0.61 1.03,-1.23 1.56,-1.86c1.57,-1.39 1.57,-1.39 4.57,-1.39c0.11,-0.6 0.22,-1.2 0.33,-1.83c1.09,-3.53 3.92,-5.54 6.61,-7.92c0.55,-0.51 1.1,-1.01 1.67,-1.54c4.12,-3.71 4.12,-3.71 6.39,-3.71c0,-0.66 0,-1.32 0,-2z" fill="#100F0D" id="svg_13" transform="translate(223,323)"/>
  <path d="m0,0c0.66,0 1.32,0 2,0c0.75,1.63 0.75,1.63 1,4c-1.26,2.05 -2.6,4.04 -4,6c-0.26,0.79 -0.52,1.58 -0.79,2.39c-1.6,3.45 -3.75,5.07 -6.71,7.42c-0.98,0.79 -1.96,1.58 -2.97,2.4c-2.53,1.79 -2.53,1.79 -4.53,1.79c-0.33,1.32 -0.66,2.64 -1,4c-0.99,-0.66 -1.98,-1.32 -3,-2c0,1.65 0,3.3 0,5c-1.32,-0.33 -2.64,-0.66 -4,-1c0,-0.66 0,-1.32 0,-2c-0.66,0 -1.32,0 -2,0c0,-0.99 0,-1.98 0,-3c1.62,-1.39 3.3,-2.71 5,-4c2.28,-2.23 4.51,-4.48 6.69,-6.81c1.31,-1.19 1.31,-1.19 3.31,-1.19c0.08,-0.58 0.17,-1.17 0.25,-1.77c0.97,-2.88 2.38,-4.03 4.69,-5.98c0.71,-0.61 1.42,-1.23 2.15,-1.86c1.91,-1.39 1.91,-1.39 3.91,-1.39c0,-0.66 0,-1.32 0,-2z" fill="#121011" id="svg_14" transform="translate(284,262)"/>
  <path d="m0,0c0.99,0 1.98,0 3,0c-1.08,2.51 -1.92,3.93 -4.04,5.71c-2.67,3.12 -2.48,5.1 -2.51,9.17c-0.01,0.68 -0.02,1.37 -0.03,2.07c-0.03,2.25 -0.03,4.5 -0.03,6.75c-0.01,1.57 -0.03,3.13 -0.05,4.69c-0.04,4.11 -0.06,8.22 -0.08,12.33c-0.02,4.2 -0.06,8.4 -0.1,12.59c-0.08,8.23 -0.13,16.46 -0.16,24.69c-0.66,0 -1.32,0 -2,0c-0.05,-9.08 -0.08,-18.15 -0.1,-27.23c-0.01,-4.21 -0.03,-8.42 -0.05,-12.64c-0.02,-4.06 -0.03,-8.13 -0.04,-12.19c0,-1.55 -0.01,-3.11 -0.02,-4.66c-0.02,-2.17 -0.02,-4.34 -0.02,-6.51c0,-1.24 -0.01,-2.48 -0.01,-3.75c0.24,-3.02 0.24,-3.02 2.24,-6.02c0.66,0 1.32,0 2,0c0,-0.99 0,-1.98 0,-3c0.66,0 1.32,0 2,0c0,-0.66 0,-1.32 0,-2z" fill="#0A0809" id="svg_15" transform="translate(206,362)"/>
  <path d="m0,0c0,3 0,3 -1.18,4.54c-0.83,0.82 -0.83,0.82 -1.68,1.66c-0.62,0.62 -1.25,1.25 -1.89,1.89c-0.68,0.67 -1.37,1.34 -2.07,2.03c-1.05,1.04 -1.05,1.04 -2.12,2.1c-2.24,2.23 -4.49,4.44 -6.75,6.66c-1.5,1.48 -3,2.97 -4.5,4.45c-2.76,2.74 -5.53,5.48 -8.3,8.21c-2.85,2.81 -5.69,5.63 -8.51,8.46c-5.33,5.33 -10.67,10.67 -16,16c-0.66,-0.33 -1.32,-0.66 -2,-1c18.15,-18.15 36.3,-36.3 55,-55z" fill="#D7D6D6" id="svg_16" transform="translate(299,273)"/>
  <path d="m0,0c0.66,0 1.32,0 2,0c-1.33,2.94 -2.77,5.02 -5.04,7.3c-0.92,0.93 -0.92,0.93 -1.86,1.88c-0.66,0.66 -1.32,1.31 -2.01,1.99c-0.68,0.68 -1.36,1.37 -2.06,2.07c-1.44,1.44 -2.87,2.87 -4.32,4.31c-2.21,2.2 -4.41,4.41 -6.61,6.63c-1.4,1.39 -2.8,2.79 -4.19,4.18c-0.67,0.66 -1.33,1.33 -2.01,2.02c-0.61,0.6 -1.23,1.21 -1.86,1.84c-0.54,0.54 -1.08,1.08 -1.64,1.63c-1.4,1.15 -1.4,1.15 -3.4,1.15c1.2,-2.49 2.45,-4.68 4,-7c0.99,-0.33 1.98,-0.66 3,-1c0.33,-0.99 0.66,-1.98 1,-3c0.66,0 1.32,0 2,0c0,-0.66 0,-1.32 0,-2c3.46,-3 3.46,-3 6,-3c0.25,-0.58 0.5,-1.16 0.75,-1.75c1.43,-2.58 3.03,-4.31 5.25,-6.25c0.66,0 1.32,0 2,0c0.23,-0.58 0.45,-1.15 0.69,-1.75c1.64,-2.82 3.75,-4.26 6.31,-6.25c0.66,-0.99 1.32,-1.98 2,-3z" fill="#0D0B0C" id="svg_17" transform="matrix(1 0 0 1 0 0) translate(343 226)"/>
  <path d="m0,0c0,3 0,3 -1.76,5.1c-0.8,0.79 -1.61,1.58 -2.44,2.39c-1.32,1.31 -1.32,1.31 -2.67,2.64c-0.93,0.91 -1.86,1.81 -2.82,2.75c-1.37,1.34 -1.37,1.34 -2.76,2.72c-1.71,1.68 -3.43,3.37 -5.15,5.04c-2.48,2.44 -4.94,4.9 -7.4,7.36c-6.67,6.67 -13.33,13.33 -20,20c-0.66,-0.33 -1.32,-0.66 -2,-1c15.51,-15.51 31.02,-31.02 47,-47z" fill="#D8D6D7" id="svg_18" transform="translate(347,225)"/>
  <path d="m0,0c0.99,0.33 1.98,0.66 3,1c0,0.66 0,1.32 0,2c0.66,0 1.32,0 2,0c-0.33,0.99 -0.66,1.98 -1,3c-1.32,0 -2.64,0 -4,0c-0.33,1.32 -0.66,2.64 -1,4c-0.66,0 -1.32,0 -2,0c0,0.99 0,1.98 0,3c-3.88,-0.87 -3.88,-0.87 -5,-2c-0.3,-2.35 -0.3,-2.35 0,-5c1.64,-1.84 1.64,-1.84 3.81,-3.37c0.71,-0.53 1.42,-1.05 2.15,-1.59c0.67,-0.34 1.35,-0.69 2.04,-1.04z" fill="#161415" id="svg_19" transform="translate(480,626)"/>
  <path d="m0,0c0.33,1.32 0.66,2.64 1,4c1.32,0 2.64,0 4,0c0,0.99 0,1.98 0,3c-0.99,0 -1.98,0 -3,0c-0.66,1.65 -1.32,3.3 -2,5c-0.62,-0.21 -1.24,-0.41 -1.88,-0.62c-0.7,-0.13 -1.4,-0.25 -2.12,-0.38c-0.66,0.66 -1.32,1.32 -2,2c0,-2.31 0,-4.62 0,-7c0.66,0 1.32,0 2,0c0,-0.66 0,-1.32 0,-2c0.66,0 1.32,0 2,0c0.66,-1.32 1.32,-2.64 2,-4z" fill="#121011" id="svg_20" transform="translate(183,549)"/>
  <path d="m0,0c1.53,0.09 3.05,0.25 4.56,0.44c0.83,0.1 1.66,0.2 2.51,0.31c0.63,0.08 1.27,0.16 1.93,0.25c-0.66,0.66 -1.32,1.32 -2,2c-0.99,0 -1.98,0 -3,0c0,1.32 0,2.64 0,4c-1.32,-0.33 -2.64,-0.66 -4,-1c0,1.65 0,3.3 0,5c-0.66,0 -1.32,0 -2,0c0,-0.66 0,-1.32 0,-2c-0.99,-0.33 -1.98,-0.66 -3,-1c0,-1.32 0,-2.64 0,-4c0.99,-0.33 1.98,-0.66 3,-1c0,0.66 0,1.32 0,2c0.66,0 1.32,0 2,0c-0.28,-0.96 -0.28,-0.96 -0.56,-1.94c-0.15,-0.68 -0.29,-1.36 -0.44,-2.06c0.33,-0.33 0.66,-0.66 1,-1z" fill="#151314" id="svg_21" transform="translate(203,623)"/>
  <path d="m0,0c0.33,0.66 0.66,1.32 1,2c-4.26,5.01 -8.68,9.76 -13.4,14.34c-1.69,1.58 -1.69,1.58 -2.6,3.66c-1.32,-0.33 -2.64,-0.66 -4,-1c6.27,-6.27 12.54,-12.54 19,-19z" fill="#B48F6A" id="svg_22" transform="translate(191,268)"/>
  <path d="m0,0c1.94,0.38 1.94,0.38 4,1c0.33,0.66 0.66,1.32 1,2c-0.66,0.66 -1.32,1.32 -2,2c-0.12,-0.64 -0.25,-1.28 -0.37,-1.94c-0.31,-1.02 -0.31,-1.02 -0.63,-2.06c-0.66,-0.33 -1.32,-0.66 -2,-1zm-4,1c0.66,0.99 1.32,1.98 2,3c-1.98,0.99 -1.98,0.99 -4,2c0.66,0.66 1.32,1.32 2,2c0.66,-0.99 1.32,-1.98 2,-3c1.32,0.66 2.64,1.32 4,2c-2.31,1.65 -4.62,3.3 -7,5c-0.66,-0.33 -1.32,-0.66 -2,-1c0,-0.99 0,-1.98 0,-3c-0.99,-0.33 -1.98,-0.66 -3,-1c1.29,-1.38 2.63,-2.71 4,-4c0.66,0 1.32,0 2,0c0,-0.66 0,-1.32 0,-2z" fill="#0C0A0B" id="svg_23" transform="translate(277,272)"/>
  <path d="m0,0c0.7,1.75 0.7,1.75 1,4c-1.29,2.04 -1.29,2.04 -3.19,4.06c-0.61,0.67 -1.22,1.35 -1.85,2.04c-1.9,1.85 -3.74,3.46 -5.96,4.9c-2.25,-0.31 -2.25,-0.31 -4,-1c0.85,-0.66 1.69,-1.32 2.56,-2c3.94,-3.26 7.14,-7.11 10.44,-11c0.33,-0.33 0.66,-0.66 1,-1z" fill="#B7906A" id="svg_24" transform="translate(302,157)"/>
  <path d="m0,0c1.32,0 2.64,0 4,0c1.75,2.5 1.75,2.5 3,5c-1.32,0 -2.64,0 -4,0c-0.33,1.65 -0.66,3.3 -1,5c-2.04,-1.27 -4.04,-2.61 -6,-4c0,-0.66 0,-1.32 0,-2c0.66,0 1.32,0 2,0c0.66,-1.32 1.32,-2.64 2,-4z" fill="#B78756" id="svg_25" transform="translate(446,193)"/>
  <path d="m0,0c-1.39,3.12 -3,5.26 -5.41,7.67c-0.66,0.67 -1.32,1.33 -2,2.01c-0.69,0.69 -1.38,1.37 -2.09,2.07c-0.69,0.7 -1.38,1.39 -2.09,2.11c-0.66,0.66 -1.32,1.32 -2,2c-0.61,0.6 -1.21,1.21 -1.84,1.83c-1.57,1.31 -1.57,1.31 -3.57,1.31c1,-3 1.65,-4.03 4,-6c0.66,0 1.32,0 2,0c0,-0.99 0,-1.98 0,-3c0.66,0 1.32,0 2,0c0,-0.66 0,-1.32 0,-2c0.64,-0.1 1.28,-0.21 1.94,-0.31c1.02,-0.34 1.02,-0.34 2.06,-0.69c0.33,-0.99 0.66,-1.98 1,-3c3.54,-4 3.54,-4 6,-4z" fill="#0F0D0E" id="svg_26" transform="translate(297,274)"/>
  <path d="m0,0c0.66,0.99 1.32,1.98 2,3c-0.99,0.33 -1.98,0.66 -3,1c-0.27,0.58 -0.54,1.16 -0.81,1.75c-2.55,4.82 -7.11,7.61 -12.19,9.25c3.51,-4.18 7.08,-8.19 11,-12c0.6,-0.6 1.2,-1.2 1.81,-1.81c0.39,-0.39 0.79,-0.79 1.19,-1.19z" fill="#B58C64" id="svg_27" transform="translate(235,224)"/>
  <path d="m0,0c-1.61,4.03 -4.46,6.76 -7.5,9.75c-0.5,0.51 -1,1.01 -1.51,1.54c-3.74,3.71 -3.74,3.71 -5.99,3.71c2.43,-5.24 8.67,-15 15,-15z" fill="#0C0B0A" id="svg_28" transform="translate(261,310)"/>
  <path d="m0,0c-1.44,3.36 -3.25,5.59 -6,8c-0.66,0 -1.32,0 -2,0c-0.27,0.6 -0.54,1.2 -0.81,1.81c-1.17,2.16 -2.38,3.55 -4.19,5.19c-0.99,-0.33 -1.98,-0.66 -3,-1c2.28,-2.34 4.58,-4.67 6.87,-7c0.66,-0.67 1.31,-1.34 1.98,-2.02c0.62,-0.64 1.25,-1.27 1.89,-1.92c0.58,-0.58 1.15,-1.17 1.75,-1.77c1.51,-1.29 1.51,-1.29 3.51,-1.29z" fill="#B5936F" id="svg_29" transform="translate(128,333)"/>
  <path d="m0,0c-1.36,3.04 -2.88,5.12 -5.26,7.45c-0.62,0.62 -1.25,1.24 -1.89,1.88c-0.65,0.63 -1.3,1.27 -1.98,1.92c-0.65,0.65 -1.31,1.3 -1.99,1.97c-1.62,1.6 -3.25,3.19 -4.88,4.78c-0.66,-0.33 -1.32,-0.66 -2,-1c7,-7 7,-7 8.67,-8.54c1.58,-1.54 1.58,-1.54 2.33,-4.46c4.46,-4 4.46,-4 7,-4z" fill="#0F0E0C" id="svg_30" transform="translate(229,342)"/>
  <path d="m0,0c-1.61,4.03 -4.46,6.76 -7.5,9.75c-0.5,0.51 -1,1.01 -1.51,1.54c-3.74,3.71 -3.74,3.71 -5.99,3.71c1.2,-2.49 2.45,-4.68 4,-7c0.99,-0.33 1.98,-0.66 3,-1c0.33,-0.99 0.66,-1.98 1,-3c4.46,-4 4.46,-4 7,-4z" fill="#0D0C0A" id="svg_31" transform="translate(245,326)"/>
  <path d="m0,0c0.66,0 1.32,0 2,0c-1.61,4.03 -4.46,6.76 -7.5,9.75c-0.5,0.51 -1,1.01 -1.51,1.54c-3.74,3.71 -3.74,3.71 -5.99,3.71c1.2,-2.49 2.45,-4.68 4,-7c0.99,-0.33 1.98,-0.66 3,-1c0.33,-0.66 0.66,-1.32 1,-2c0.66,0 1.32,0 2,0c0.31,-0.64 0.62,-1.28 0.94,-1.94c1.06,-2.06 1.06,-2.06 2.06,-3.06z" fill="#0E0C0D" id="svg_32" transform="translate(275,294)"/>
  <path d="m0,0c0.99,0 1.98,0 3,0c0,0.99 0,1.98 0,3c0.66,0 1.32,0 2,0c0,0.66 0,1.32 0,2c-1.65,0 -3.3,0 -5,0c-0.33,1.32 -0.66,2.64 -1,4c-0.99,-0.99 -1.98,-1.98 -3,-3c1.15,-2.47 2.05,-4.05 4,-6z" fill="#151412" id="svg_33" transform="translate(200,347)"/>
  <path d="m0,0c2.78,1.39 2.98,3.16 4,6c-0.99,0.5 -0.99,0.5 -2,1c0,0.99 0,1.98 0,3c-3.88,-0.87 -3.88,-0.87 -5,-2c-0.25,-2.37 -0.25,-2.37 0,-5c1.5,-1.81 1.5,-1.81 3,-3z" fill="#0C0A0B" id="svg_34" transform="translate(475,629)"/>
  <path d="m0,0c0.66,0 1.32,0 2,0c0,0.99 0,1.98 0,3c0.99,0.33 1.98,0.66 3,1c-0.99,0.33 -1.98,0.66 -3,1c0,0.66 0,1.32 0,2c-2.64,0 -5.28,0 -8,0c0.66,-0.33 1.32,-0.66 2,-1c0,-0.99 0,-1.98 0,-3c1.32,0 2.64,0 4,0c0,-0.99 0,-1.98 0,-3z" fill="#141213" id="svg_35" transform="translate(276,643)"/>
  <path d="m0,0c4.04,1.57 6.47,4.44 9.25,7.63c0.46,0.51 0.92,1.03 1.39,1.56c1.13,1.26 2.24,2.54 3.36,3.81c-3,0 -3,0 -5.7,-2.34c-1,-1 -2,-2.01 -2.99,-3.03c-0.51,-0.51 -1.02,-1.02 -1.55,-1.54c-3.76,-3.82 -3.76,-3.82 -3.76,-6.09z" fill="#131112" id="svg_36" transform="translate(450,281)"/>
  <path d="m0,0c0.66,0 1.32,0 2,0c0,0.66 0,1.32 0,2c1.32,0 2.64,0 4,0c-0.33,0.99 -0.66,1.98 -1,3c-0.66,0 -1.32,0 -2,0c0,0.66 0,1.32 0,2c-1.87,-0.31 -1.87,-0.31 -4,-1c-0.66,-0.99 -1.32,-1.98 -2,-3c0.99,0 1.98,0 3,0c0,-0.99 0,-1.98 0,-3z" fill="#151314" id="svg_37" transform="translate(389,624)"/>
  <path d="m0,0c0.66,0 1.32,0 2,0c-1.4,3.16 -3.05,5.32 -5.5,7.75c-0.91,0.92 -0.91,0.92 -1.84,1.86c-1.66,1.39 -1.66,1.39 -3.66,1.39c0,-0.99 0,-1.98 0,-3c0.99,-0.33 1.98,-0.66 3,-1c1.59,-1.64 1.59,-1.64 3.06,-3.56c1.54,-1.94 1.54,-1.94 2.94,-3.44z" fill="#0E0C0D" id="svg_38" transform="translate(307,262)"/>
  <path d="m0,0c0.66,0 1.32,0 2,0c0,0.66 0,1.32 0,2c0.99,0.33 1.98,0.66 3,1c0.33,-0.66 0.66,-1.32 1,-2c0.66,0.33 1.32,0.66 2,1c-0.66,1.32 -1.32,2.64 -2,4c-2.97,-0.5 -2.97,-0.5 -6,-1c-0.56,-1.94 -0.56,-1.94 -1,-4c0.33,-0.33 0.66,-0.66 1,-1z" fill="#161415" id="svg_39" transform="translate(370,642)"/>
  <path d="m0,0c0.99,0.33 1.98,0.66 3,1c-0.95,1.15 -1.91,2.29 -2.87,3.44c-0.54,0.64 -1.07,1.27 -1.62,1.93c-1.51,1.63 -1.51,1.63 -3.51,2.63c-0.66,-0.66 -1.32,-1.32 -2,-2c2.31,-2.31 4.62,-4.62 7,-7z" fill="#B79471" id="svg_40" transform="translate(369,90)"/>
  <path d="m0,0c0.66,0.33 1.32,0.66 2,1c-0.33,1.32 -0.66,2.64 -1,4c-1.32,0.33 -2.64,0.66 -4,1c0,0.66 0,1.32 0,2c-0.99,-0.33 -1.98,-0.66 -3,-1c0.19,-1.81 0.19,-1.81 1,-4c2.44,-1.81 2.44,-1.81 5,-3z" fill="#151314" id="svg_41" transform="translate(343,205)"/>
  <path d="m0,0c0.66,0 1.32,0 2,0c0,0.66 0,1.32 0,2c0.66,0 1.32,0 2,0c0.33,1.65 0.66,3.3 1,5c-2.87,-0.57 -3.86,-0.86 -6,-3c0.37,-2.12 0.37,-2.12 1,-4z" fill="#131210" id="svg_42" transform="translate(193,353)"/>
  <path d="m0,0c0.99,0 1.98,0 3,0c-1.67,3.94 -4.23,6.79 -7,10c-0.33,-0.99 -0.66,-1.98 -1,-3c0.33,-0.66 0.66,-1.32 1,-2c0.66,0 1.32,0 2,0c0,-0.99 0,-1.98 0,-3c0.66,0 1.32,0 2,0c0,-0.66 0,-1.32 0,-2z" fill="#0D0C0C" id="svg_43" transform="translate(206,362)"/>
  <path d="m0,0c0.33,0.99 0.66,1.98 1,3c-1.94,2.69 -1.94,2.69 -4,5c-1.32,-0.33 -2.64,-0.66 -4,-1c2.31,-2.31 4.62,-4.62 7,-7z" fill="#B8926B" id="svg_44" transform="translate(220,239)"/>
  <path d="m0,0c0.99,0.66 1.98,1.32 3,2c-2.25,2.56 -2.25,2.56 -5,5c-2.31,-0.19 -2.31,-0.19 -4,-1c0.66,0 1.32,0 2,0c0.29,-0.62 0.58,-1.24 0.87,-1.87c1.13,-2.13 1.13,-2.13 3.13,-4.13z" fill="#B6906B" id="svg_45" transform="translate(360,99)"/>
  <path d="m0,0c0.99,0.66 1.98,1.32 3,2c-2.64,1.98 -5.28,3.96 -8,6c-0.66,-0.33 -1.32,-0.66 -2,-1c2.31,-2.31 4.62,-4.62 7,-7z" fill="#B99670" id="svg_46" transform="translate(158,301)"/>
  <path d="m0,0c0.66,0.33 1.32,0.66 2,1c-0.62,1.88 -0.62,1.88 -2,4c-3.13,1.25 -3.13,1.25 -6,2c1.98,-2.31 3.96,-4.62 6,-7z" fill="#BA946F" id="svg_47" transform="translate(165,294)"/>
  <path d="m0,0c0.43,0.62 0.87,1.24 1.31,1.88c1.69,2.34 1.69,2.34 4.69,4.12c-0.66,0 -1.32,0 -2,0c-0.33,0.66 -0.66,1.32 -1,2c-3.01,-2.01 -3.63,-2.84 -5,-6c0.66,0 1.32,0 2,0c0,-0.66 0,-1.32 0,-2z" fill="#0C0A0B" id="svg_48" transform="translate(186,453)"/>
  <path d="m0,0c0.99,0.33 1.98,0.66 3,1c-1.37,1.5 -1.37,1.5 -3,3c-0.66,0 -1.32,0 -2,0c-0.33,0.99 -0.66,1.98 -1,3c-2.06,0.69 -2.06,0.69 -4,1c0.66,-0.99 1.32,-1.98 2,-3c0.66,0 1.32,0 2,0c0.31,-0.64 0.62,-1.28 0.94,-1.94c1.06,-2.06 1.06,-2.06 2.06,-3.06z" fill="#B28E6A" id="svg_49" transform="translate(259,200)"/>
  <path d="m0,0c1.98,0 3.96,0 6,0c-0.33,1.65 -0.66,3.3 -1,5c-1.94,-0.81 -1.94,-0.81 -4,-2c-0.33,-0.99 -0.66,-1.98 -1,-3z" fill="#181617" id="svg_50" transform="translate(354,193)"/>
  <path d="m0,0c0.66,0.99 1.32,1.98 2,3c-1.65,1.32 -3.3,2.64 -5,4c-0.66,-0.66 -1.32,-1.32 -2,-2c1.65,-1.65 3.3,-3.3 5,-5z" fill="#B6906B" id="svg_51" transform="translate(171,288)"/>
  <path d="m0,0c0.66,0 1.32,0 2,0c0,0.66 0,1.32 0,2c0.66,0 1.32,0 2,0c0.33,1.32 0.66,2.64 1,4c-1.32,-0.33 -2.64,-0.66 -4,-1c-0.33,-1.65 -0.66,-3.3 -1,-5z" fill="#171516" id="svg_52" transform="translate(187,452)"/>
  <path d="m0,0c-1.2,2.49 -2.45,4.68 -4,7c-0.66,0 -1.32,0 -2,0c0.63,-3.64 1.85,-7 6,-7z" fill="#B28C64" id="svg_53" transform="translate(128,333)"/>
  <path d="m0,0c0.99,0.33 1.98,0.66 3,1c-1.65,1.65 -3.3,3.3 -5,5c-0.66,-0.66 -1.32,-1.32 -2,-2c1.32,-1.32 2.64,-2.64 4,-4z" fill="#B28B64" id="svg_54" transform="translate(142,317)"/>
  <path d="m0,0c0.66,0.33 1.32,0.66 2,1c-1,3 -1,3 -3.44,4.75c-1.27,0.62 -1.27,0.62 -2.56,1.25c-0.66,-0.33 -1.32,-0.66 -2,-1c1.98,-1.98 3.96,-3.96 6,-6z" fill="#BA9672" id="svg_55" transform="translate(227,232)"/>
  <path d="m0,0c0.33,0.66 0.66,1.32 1,2c2.02,0.65 2.02,0.65 4,1c-0.33,1.32 -0.66,2.64 -1,4c-1.65,-1.32 -3.3,-2.64 -5,-4c0.33,-0.99 0.66,-1.98 1,-3z" fill="#181617" id="svg_56" transform="translate(184,456)"/>
  <path d="m0,0c0.33,1.32 0.66,2.64 1,4c-4.63,3 -4.63,3 -8,3c2.31,-2.31 4.62,-4.62 7,-7z" fill="#B49371" id="svg_57" transform="translate(331,128)"/>
  <path d="m0,0c0.33,0.66 0.66,1.32 1,2c0.66,0 1.32,0 2,0c0.33,1.32 0.66,2.64 1,4c-1.32,-0.33 -2.64,-0.66 -4,-1c-0.56,-1.94 -0.56,-1.94 -1,-4c0.33,-0.33 0.66,-0.66 1,-1z" fill="#151314" id="svg_58" transform="translate(473,633)"/>
  <path d="m0,0c0.66,1.32 1.32,2.64 2,4c-1.98,0.99 -1.98,0.99 -4,2c-0.33,-0.99 -0.66,-1.98 -1,-3c0.99,-0.99 1.98,-1.98 3,-3z" fill="#0E0C0D" id="svg_59" transform="translate(194,445)"/>
  <path d="m0,0c1.65,0 3.3,0 5,0c0,1.65 0,3.3 0,5c-1.32,-0.33 -2.64,-0.66 -4,-1c-0.33,-1.32 -0.66,-2.64 -1,-4z" fill="#161415" id="svg_60" transform="translate(259,288)"/>
  <path d="m0,0c1.13,3.75 1.13,3.75 0,6c-1.32,-0.33 -2.64,-0.66 -4,-1c1.32,-1.65 2.64,-3.3 4,-5z" fill="#B9926C" id="svg_61" transform="translate(244,215)"/>
  <path d="m0,0c0.66,0 1.32,0 2,0c-0.33,1.32 -0.66,2.64 -1,4c-1.65,0.33 -3.3,0.66 -5,1c1.28,-1.71 2.62,-3.37 4,-5z" fill="#B8926D" id="svg_62" transform="translate(310,149)"/>
  <text fill="#000000" font-family="Serif" font-size="20" id="svg_63" stroke-width="0" text-anchor="middle" x="560" xml:space="preserve" y="445"/>
  <text fill="#000000" font-family="Serif" font-size="20" id="svg_65" stroke-width="0" text-anchor="middle" x="530" xml:space="preserve" y="445"/>
  <text fill="#000000" font-family="Serif" font-size="20" id="svg_66" stroke-width="0" text-anchor="middle" x="320" xml:space="preserve" y="355"/>
  <text fill="#000000" font-family="Serif" font-size="20" id="svg_67" stroke-width="0" text-anchor="middle" x="310" xml:space="preserve" y="455"/>
  <text fill="#000000" font-family="Serif" font-size="20" id="svg_68" stroke-width="0" text-anchor="middle" x="480" xml:space="preserve" y="375"/>
  <text fill="#000000" font-family="Serif" font-size="20" id="svg_69" stroke-width="0" text-anchor="middle" x="360" xml:space="preserve" y="425"/>
  <text fill="#000000" font-family="Serif" font-size="20" id="svg_70" stroke-width="0" text-anchor="middle" x="360" xml:space="preserve" y="425"/>
  <rect fill="#FEFEFE" height="0" id="svg_71" opacity="0.5" width="0" x="590" y="445"/>
  <rect fill="#FEFEFE" height="0" id="svg_72" opacity="0.5" width="0" x="780" y="695"/>
  <rect fill="#FEFEFE" height="0" id="svg_73" opacity="0.5" width="0" x="-5670" y="2205"/>
  <rect fill="#FEFEFE" height="0" id="svg_74" opacity="0.5" width="0" x="470" y="405"/>
  <rect fill="#FEFEFE" height="0" id="svg_75" opacity="0.5" width="0" x="730" y="665"/>
  <rect fill="#FEFEFE" height="0" id="svg_76" opacity="0.5" width="0" x="460" y="505"/>
  <text fill="#000000" font-family="Serif" font-size="20" id="svg_77" stroke-width="0" text-anchor="middle" x="340" xml:space="preserve" y="405"/>
  <text fill="#000000" font-family="Serif" font-size="20" id="svg_78" stroke-width="0" text-anchor="middle" x="318.57" xml:space="preserve" y="440"/>
  <text fill="#000000" font-family="Serif" font-size="20" id="svg_79" stroke-width="0" text-anchor="middle" x="343.57" xml:space="preserve" y="400"/>
  <text fill="#000000" font-family="Serif" font-size="20" id="svg_80" stroke-width="0" text-anchor="middle" x="343.57" xml:space="preserve" y="400"/>
  <text fill="#000000" font-family="Serif" font-size="20" id="svg_81" stroke-width="0" text-anchor="middle" x="435" xml:space="preserve" y="400"/>
  <text fill="#000000" font-family="Serif" font-size="10" id="svg_64" stroke="#000000" stroke-width="0" text-anchor="middle" transform="matrix(30.9841 0 0 28.9323 -10048.3 -12688.3)" x="358.68" xml:space="preserve" y="458">wama rentals</text>
 </g>
</svg>