<?xml version="1.0" encoding="UTF-8"?>
<svg version="1.1" viewBox="0 0 1500 1600" width="1500" height="1600" xmlns="http://www.w3.org/2000/svg">
<path transform="translate(0)" d="m0 0h1500v1600h-1500z" fill="#FCFCFC"/>
<path transform="translate(0,1500)" d="m0 0h1500v100h-1500z" fill="#282F39"/>
<path transform="translate(455,526)" d="m0 0h134l2 6 4 23 2 7 4 23 5 23 5 27 11 55 7 36 3 14 3-3 7-14h2l2-6 9-15 7-12 1-3h2l2-6 10-17 6-10 1-3h2l2-6 10-17 6-10 1-3h2l2-6 10-17 6-10 1-3h2l2-6 10-17 6-10 1-3h2l1-5 5-7h2v3h2l5 9 6 10 2 5h2l4 8 3 5v2h2l5 9 6 10 11 18v2h2l5 9 6 10 11 18v2h2l4 8 3 4v3h2l5 9 6 10 2 5h2l4 8 3 5v2h2l5 9 6 10 2 5h2l4 8 2 5h2l3-13 2-11 21-105 2-12 1-1 3-17 9-45 2-11 1-1h45l-4 8 1 6 5 3 13-3 2 2-1 4-7 5h-3l1 4 6-1 4-3h2l2-5v-7l-3-3h-7l-4 2h-5l-1-5 5-4 3-1 1-2h6l7 8 5 7 4-1-2-4-6-8v-2h12l5 5 4-1v-4h24l2 2-4 15-6 26-5 24-4 16-12 52-3 14-4 16-4 20-5 20-2 9-4 17-2 9-3 14-4 16-4 20-8 33-1 6-4-2-5-1-2 3h-3l3 5 7 8-1 4-2-2-10 1 3-4-1-5-2-3-3 3h-2v7l4 3v2h2l2 5 6-1 2-1-1 8-9 39-7 24-2 8-5 18h-51l-1-5h-2l-8-16-5-9v-2h-2l-2-7 1-5-4-4-4-1-4-8v-2h-2l-8-16-5-9v-2h-2l-8-16-5-9v-2h-2l-8-16-5-8v-3h-2l-5-10-5-8v-3h-2l-5-10-5-9v-2h-2l-5-10-5-9v-2h-2l-5-10-7-11-6-11-2-5 14 1 9 2 14 2 40 6 18 2-14-4-25-7-8-2-25-7-7-2-20-5h-3l-3 6h-2l-2 6-7 12-4 9h-2l-2 6-7 12-4 9h-2l-2 6-7 12-2 3-1-23h-29l-1 80-1 3h-2l-2 6-7 12-4 9h-2l-2 6-7 12-4 9h-2l-2 6-7 12-4 9h-2l-2 6-7 12-4 9h-2l-1 5h-34l-2-5-2-9-10-36-5-19-4-14-5-19-4-14-5-19-4-14-5-20-4-13-2-9-5-18-4-15-5-18-4-15-10-36-2-9-2-7-2-5-5-21-2-7-2-5-5-21-3-11-2-7-6-22-5-17-2-9-3-13z" fill="#0F0B50"/>
<path transform="translate(749,758)" d="m0 0h1v8l4 1 2 1 7 14-1 7-3 6h-2l-1 5-5 8-7 14h-2l-1 6h-2l-1 5-5 8-7 14h-2l-1 6h-2l-1 5-5 8-7 14h-2l-1 6h-2l-2 6-8 15-3 6h-2l-1 6h-2l-2 6-5 10h-2l-2 6-2 5h-2l-1 6h-2l-2 6-5 8h-28l1-5 3-6h2l1-6h2l1-5 5-8 7-14h2l1-6h2l2-6 6-11 5-10h2l1-6h2l2-6 5-10h2l2-6 2-5h2l1-6h2l2-6 5-10h2l2-6 2-5h2l1-5 9-16 6-12h2l1-5 9-16 8-15 1-3z" fill="#454346"/>
<path transform="translate(750,718)" d="m0 0 23 6 7 2 25 7 14 4 19 5 14 4 5 1v1l-17-1-10-2-16-2-24-4-16-2-13-2h-3l7 12 6 11 3 4v2l-2 1v7l-3 2h-11l-2-3v-3l-6-2-1-7h-2l-1 5-7 13-1-2h-5l-1-1-1-17-2-2 1-2h2l1-5 7-12 5-10h2l1-5z" fill="#DBDBDB"/>
<path transform="translate(756,1325)" d="m0 0h14l1 2 3 28v9l-5 2-21 1h-13l-1-1-3-38 7-2z" fill="#DBDBDB"/>
<path transform="translate(1084,734)" d="m0 0h20l1 1v11l1 27-1 1-8 1-30 1-1-1-1-28v-11l1-1z" fill="#DBDBDB"/>
<path transform="translate(1085,1326)" d="m0 0h18l1 1 3 28v10l-1 1-9 1-29 1-1-2-2-27-1-11 1-1z" fill="#DBDBDB"/>
<path transform="translate(267,881)" d="m0 0 4 1v20l-2 18-2 2-25 2h-13v-8l2-19 1-13 1-1z" fill="#DBDBDB"/>
<path transform="translate(758,437)" d="m0 0h14l1 1v20l-1 19-4 1-22 1h-13v-39l7-2z" fill="#DBDBDB"/>
<path transform="translate(89,1327)" d="m0 0h10l1 1 3 28v10l-7 2-15 1h-17l-1-1-2-28v-11z" fill="#DBDBDB"/>
<path transform="translate(1084,140)" d="m0 0h22l1 13v26l-1 1-10 1-27 1-2-4v-36l1-1z" fill="#DBDBDB"/>
<path transform="translate(1411,1030)" d="m0 0h31v11l-2 28-2 2h-37l-1-4 2-27 1-8 1-1z" fill="#DBDBDB"/>
<path transform="translate(430,437)" d="m0 0h8l1 1v21l-1 18-1 1-37 2-1-1v-39l1-1z" fill="#DBDBDB"/>
<path transform="translate(592,1177)" d="m0 0h11l1 1 3 33v6l-2 1-21 1h-16l-2-14-1-13v-13z" fill="#DBDBDB"/>
<path transform="translate(251,1177)" d="m0 0h16l3 34v5l-1 1-26 2h-11l-2-5-2-22v-13l2-1z" fill="#DBDBDB"/>
<path transform="translate(88,141)" d="m0 0h13l1 13v26l-6 2-15 1h-18l-1-19v-20l7-2z" fill="#DBDBDB"/>
<path transform="translate(1247,586)" d="m0 0h23l1 3v21l1 16-13 1h-26l-1-2-1-12v-25l1-1z" fill="#DBDBDB"/>
<path transform="translate(90,440)" d="m0 0h11l1 3v16l-1 21-23 2h-16v-39l1-1z" fill="#DBDBDB"/>
<path transform="translate(1249,289)" d="m0 0h25l1 1 1 9v28l-1 2-14 1h-24l-1-2v-23l-1-14 1-1z" fill="#DBDBDB"/>
<path transform="translate(1234)" d="m0 0h39v10l-2 20-12 1h-27v-13z" fill="#DBDBDB"/>
<path transform="translate(566)" d="m0 0h39v10l-2 19-1 1-19 1h-19v-12z" fill="#DBDBDB"/>
<path transform="translate(594,1473)" d="m0 0h10l1 1v12l-1 14h-40l1-23 1-2z" fill="#DBDBDB"/>
<path transform="translate(768,944)" d="m0 0h30v30h-30z" fill="#444346"/>
<path transform="translate(768,903)" d="m0 0h30v30h-30z" fill="#454346"/>
<path transform="translate(728,944)" d="m0 0h29v30h-29z" fill="#454346"/>
<path transform="translate(728,903)" d="m0 0h29v30h-29z" fill="#454346"/>
<path transform="translate(750,718)" d="m0 0 23 6 7 2 25 7 14 4 19 5 14 4 5 1v1l-17-1-10-2-16-2-24-4-16-2-3-1-1-2h-27l1-6 1-2h2l1-5z" fill="#F6F6F6"/>
<path transform="translate(143,1530)" d="m0 0h1v11h10v-7l6-4h1v11h8v6l-1 1h-7l1 13 2 3 4 1v6h-9l-4-4-1-4v-15h-10l1 14 2 2 4 1v6h-9l-4-4-1-3v-16h-3v-7h3v-8z" fill="#F8F8F8"/>
<path transform="translate(181,1540)" d="m0 0 8 1 5 5 1 2v11h-17l2 5h6l3-2 5 3-2 4-5 3h-9l-5-3-2-4v-18l4-5z" fill="#F8F8F8"/>
<path transform="translate(930,525)" d="m0 0h117v2l-26-1 1 4-2 2-4-1-4-4-12-1 8 11v4l-4 1-11-14-7-2-1 3-6 3-1 5 7-1 2-1h7l4 4v7l-3 5-6 4-6 1-1-5 8-4 2-2-1-4-13 3-5-3-2-4 1-5 4-6-46 1z" fill="#DBDBDB"/>
<path transform="translate(79,1530)" d="m0 0h7v11l8-1 7 3 3 7v21h-7l-1-20-2-3h-7l-1 23h-7z" fill="#F8F8F8"/>
<path transform="translate(314,1530)" d="m0 0h7l1 20 8-9h9l-6 8-5 6 11 15v1h-8l-8-10h-1l-1 10h-7z" fill="#F8F8F8"/>
<path transform="translate(107,1541)" d="m0 0h7l1 24h8l1-24h7v29l-6 2h-11l-5-3-2-4z" fill="#F8F8F8"/>
<path transform="translate(225,1540)" d="m0 0 9 1 3 1-1 6-2 1-3-1h-7l-1 4 10 2 5 5v6l-2 4-6 3h-11l-5-2 2-6h14v-3l-10-3-4-3-1-7 3-5z" fill="#F7F7F7"/>
<path transform="translate(64,1540)" d="m0 0 9 1 3 1-1 5-1 2-4-1h-7l-1 3 12 4 3 5-1 7-4 4-3 1h-11l-5-2 1-5 4-1 11 1v-4l-10-3-4-3-1-7 3-5z" fill="#F7F7F7"/>
<path transform="translate(297,1540)" d="m0 0 8 1 6 5v3l-6 2-3-3h-7v15l1 1h7l3-3 5 2-1 5-6 4h-9l-5-3-3-5v-16l4-6z" fill="#F7F7F7"/>
<path transform="translate(248,1530)" d="m0 0h2v11h7v7h-7l1 15 5 2v6h-8l-4-4-1-2v-17l-4-1v-6h4v-8z" fill="#F8F8F8"/>
<path transform="translate(963,851)" d="m0 0 5 1 4 3-2 12-2 11-4 1-6 1-2-2v-4h-2l-5-5 1-7 4-1 1-3 2 2 2 4-1 4-2 2 9-1 2 2-1-4-8-9v-3l3-1z" fill="#C5C4C9"/>
<path transform="translate(913,888)" d="m0 0h6l6 7 1 6-7 7h-3l-9-12 1-4z" fill="#DBDBDB"/>
<path transform="translate(208,1540)" d="m0 0h5l1 1v6l-7 2-1 2-1 20h-6v-25l5-5z" fill="#FAFAFA"/>
<path transform="translate(278,1555)" d="m0 0h6l1 1v9l-3 5-2 1h-11v-7l8-1z" fill="#F5F5F5"/>
<path transform="translate(265,1541)" d="m0 0h10v7l-8 1-1 8h-7v-9l3-5z" fill="#F8F8F8"/>
<path transform="translate(963,851)" d="m0 0 5 1 4 3-2 12-2 3-8-10-2-2v-3l3-1z" fill="#DBDBDB"/>
<path transform="translate(899,905)" d="m0 0h6l2 4-5 4-1 3 5-2 1-2h2l-1 4-4 3-5-1-3-4v-6z" fill="#BDBDC2"/>
<path transform="translate(929,881)" d="m0 0 5 1 2 4-5 4v2l4-1 1-3h2l-1 5-5 3-5-3-2-3v-6z" fill="#C0C0C4"/>
<path transform="translate(913,891)" d="m0 0h5l5 7-1 4-2 2h-3l-6-8 1-4z" fill="#1A164E"/>
<path transform="translate(87,161)" d="m0 0h5v9l-4 4h-8l1-5 5-1z" fill="#FDFDFD"/>
<path transform="translate(1083,148)" d="m0 0h5l1 5-1 1h-6v7h-5v-8l3-4z" fill="#FDFDFD"/>
<path transform="translate(746,1334)" d="m0 0h8v5h-6v8h-5l-1-8z" fill="#FDFDFD"/>
<path transform="translate(1417,1038)" d="m0 0h7v5l-7 1-1 7h-5l1-8z" fill="#FDFDFD"/>
<path transform="translate(1341,1532)" d="m0 0h6l2 2v8l-2 2h-6z" fill="#E9E9E9"/>
<path transform="translate(87,1347)" d="m0 0h5v10l-3 3-8 1v-6h6z" fill="#FDFDFD"/>
<path transform="translate(591,1197)" d="m0 0h5v9l-4 4h-7l-1-4 6-2z" fill="#FDFDFD"/>
<path transform="translate(1426,1050)" d="m0 0h5v7l-4 5-2 1h-6l-1-3 1-2 6-2z" fill="#FDFDFD"/>
<path transform="translate(882,918)" d="m0 0 5 5 3 4v3h-3l-2 4-5 1-6-8v-3l4 2 3 5 4-1-1-5-3-4z" fill="#DBDBDB"/>
<path transform="translate(746,742)" d="m0 0h7v5h-6l-1 8h-5v-8z" fill="#FDFDFD"/>
<path transform="translate(577,594)" d="m0 0h7v5l-6 1-1 7h-5v-9z" fill="#464447"/>
<path transform="translate(427,457)" d="m0 0 2 1v7l-4 5-2 1h-6v-5l6-1 1-7z" fill="#FDFDFD"/>
<path transform="translate(1251,297)" d="m0 0h6l1 5-6 2-1 6-5-1v-7z" fill="#FDFDFD"/>
<path transform="translate(1092,160)" d="m0 0h5v8l-5 5h-7v-5l7-1z" fill="#FDFDFD"/>
<path transform="translate(591,9)" d="m0 0h4l-2 10-3 3-7 1-1-5 6-2z" fill="#FDFDFD"/>
<path transform="translate(580,1482)" d="m0 0h7v5l-7 1-1 7h-5l2-10z" fill="#FDFDFD"/>
<path transform="translate(76,1336)" d="m0 0h6l1 5-6 1v7h-5v-10z" fill="#FDFDFD"/>
<path transform="translate(248,1185)" d="m0 0 2 2-1 4-5 1v6l-5 1-1-8 4-5z" fill="#FDFDFD"/>
<path transform="translate(1081,742)" d="m0 0 6 1-1 5-5 1-1 6h-5v-8l4-4z" fill="#FDFDFD"/>
<path transform="translate(758,457)" d="m0 0h5v7l-3 5-2 1h-7v-5h6z" fill="#FDFDFD"/>
<path transform="translate(77,449)" d="m0 0h7v5l-6 1-1 7h-5v-8z" fill="#FDFDFD"/>
<path transform="translate(416,446)" d="m0 0 5 1v4l-7 1v7h-5v-8l4-4z" fill="#FDFDFD"/>
<path transform="translate(1261,309)" d="m0 0h5v8l-5 5h-6l-1-4 4-2h3z" fill="#FDFDFD"/>
<path transform="translate(77,150)" d="m0 0h7v5l-6 1-1 7h-5v-8z" fill="#FDFDFD"/>
<path transform="translate(1258,10)" d="m0 0h5l-2 10-5 3h-6v-5l7-1z" fill="#FDFDFD"/>
<path transform="translate(1091,1346)" d="m0 0h5v9l-4 4h-7v-5l5-1z" fill="#FDFDFD"/>
<path transform="translate(758,1345)" d="m0 0h5v9l-4 4h-7v-5l5-1z" fill="#FDFDFD"/>
<path transform="translate(254,1197)" d="m0 0 5 1v8l-4 4h-7l-1-4 6-2z" fill="#FDFDFD"/>
<path transform="translate(256,902)" d="m0 0h5l-1 8-5 5h-8l1-5 6-1z" fill="#FDFDFD"/>
<path transform="translate(246,891)" d="m0 0h7l1 2-1 3-6 1-2 7h-4v-8z" fill="#FDFDFD"/>
<path transform="translate(583,890)" d="m0 0h7l-1 5h-6l-1 8h-5l1-9z" fill="#464447"/>
<path transform="translate(1090,754)" d="m0 0h5v9l-4 4h-7v-5l5-1z" fill="#FDFDFD"/>
<path transform="translate(922,606)" d="m0 0h4l1 2v6l-4 5h-8v-5l6-1z" fill="#464447"/>
<path transform="translate(1246,594)" d="m0 0h6v5l-6 1v7h-5v-9z" fill="#FDFDFD"/>
<path transform="translate(87,460)" d="m0 0 5 1-1 9-4 3h-7v-5h6z" fill="#FDFDFD"/>
<path transform="translate(747,446)" d="m0 0h8l-1 5-5 1-2 7h-4v-8z" fill="#FDFDFD"/>
<path transform="translate(1084,1334)" d="m0 0 3 1-1 5h-5v7h-5v-10l3-2z" fill="#FDFDFD"/>
<path transform="translate(580,1186)" d="m0 0h6l1 5h-6v8h-5l-1-7 3-5z" fill="#FDFDFD"/>
<path transform="translate(1256,606)" d="m0 0 5 1v7l-5 5h-6l-1-5 7-1z" fill="#FDFDFD"/>
<path transform="translate(593,901)" d="m0 0h5l-2 9-4 4h-8l1-4 6-2z" fill="#464447"/>
<path transform="translate(591,605)" d="m0 0 2 4-1 7-7 3h-4v-5l6-2 1-6z" fill="#464447"/>
<path transform="translate(1293,1532)" d="m0 0h3l2 6 2-3 1-3h3v12h-2l-1-4-2 4h-2l-1-4-1 4h-2z" fill="#E3E3E3"/>
<path transform="translate(1246)" d="m0 0h10v3l-7 1-1 7h-5l1-9z" fill="#FDFDFD"/>
<path transform="translate(1397,1532)" d="m0 0 4 1 1 2v7l-2 2-5-1-1-7 1-3z" fill="#76797E"/>
<path transform="translate(938,873)" d="m0 0 4 1v2l-4 2h8l2 2-1 5-3 2-4-1 1-2 4-2h-8l-2-2 1-5z" fill="#DBDBDB"/>
<path transform="translate(958,859)" d="m0 0 4 2 6 7-1 4-2-2-10 1 3-4-1-5-1-2z" fill="#26224C"/>
<path transform="translate(756,753)" d="m0 0h5v10l-4 3-4-1-1-4h4z" fill="#FDFDFD"/>
<path transform="translate(578)" d="m0 0h10l-1 3-5 1-2 7h-5l1-8z" fill="#FDFDFD"/>
<path transform="translate(1433,1532)" d="m0 0 4 1 1 4v6l-1 1h-5l-1-5v-3z" fill="#9B9C9F"/>
<path transform="translate(180,1547)" d="m0 0 7 1 1 1v5h-10v-5z" fill="#2E333C"/>
<path transform="translate(864,925)" d="m0 0 6 1 3 4-1 9-2-1v-3h-2l-1-5-3-1z" fill="#C6C5C7"/>
<path transform="translate(940,864)" d="m0 0 4 2 10 12-1 2h-2l-7-9-2-1v-2h-2z" fill="#C5C5C5"/>
<path transform="translate(891,912)" d="m0 0h2l-1 5 4 7v2l-4-1-6-9 1-2z" fill="#DBDBDB"/>
<path transform="translate(1317,1532)" d="m0 0h5l1 3-6-1 1 8h4v-3l-3-1h5l-1 5-1 1h-6l-1-2v-8z" fill="#E7E7E7"/>
<path transform="translate(964,854)" d="m0 0 4 1 2 3-1 7-5-4-1-6z" fill="#1D194E"/>
<path transform="translate(1309,1532)" d="m0 0 2 1 3 11h-2v-3h-5v3h-2l3-11z" fill="#D2D3D3"/>
<path transform="translate(1399,1560)" d="m0 0 4 1 1 1v5l-1 1h-5l-1-6z" fill="#7C7E83"/>
<path transform="translate(1325,1532)" d="m0 0h7v2h-5v3h4v2h-4v4h5v1h-7z" fill="#E5E5E5"/>
<path transform="translate(1418,1532)" d="m0 0h1v8l2 1h-2l-1 3v-3h-8l-1 3v-3h-6l2-3v2h4l-1-7h2v7h3l1-3 1 2 3 1-1-7z" fill="#DBDBDB"/>
<path transform="translate(1431,1560)" d="m0 0 4 1 1 5-2 2-5-1v-5z" fill="#7C7F84"/>
<path transform="translate(1342,1534)" d="m0 0h5v8l-4 1-1-1z" fill="#30353D"/>
<path transform="translate(830,744)" d="m0 0h16l11 3v1l-17-1-10-2z" fill="#DEDEDE"/>
<path transform="translate(343,1540)" d="m0 0 5 1v5l-5 1-2-2 1-4z" fill="#D9D9D9"/>
<path transform="translate(1317,1534)" d="m0 0h4l2 4-1 4-4 1-1-1z" fill="#2F343C"/>
<path transform="translate(1301,1532)" d="m0 0h3v12h-2l-1-4h-2z" fill="#DEDEDE"/>
<path transform="translate(590,1493)" d="m0 0h4v7h-5v-6z" fill="#FDFDFD"/>
<path transform="translate(1433,1539)" d="m0 0h5l-1 5h-5z" fill="#64686E"/>
<path transform="translate(904,911)" d="m0 0h6l-1 3v-2h-2l-2 4h-4l1-4z" fill="#2A274C"/>
<path transform="translate(960,872)" d="m0 0 5 1-2 4-5-1z" fill="#211E4D"/>
</svg>
